<svg width="18" height="17" viewBox="0 0 18 17" fill="none" xmlns="http://www.w3.org/2000/svg">
<path d="M6.21331 16.8925C3.04591 16.8743 0.425903 10.4086 0.425903 7.11573C0.425903 1.73688 4.46095 0.559312 6.01603 0.559312C6.71684 0.559312 7.46516 0.834522 8.12519 1.07806C8.58674 1.24794 9.06409 1.42331 9.32957 1.42331C9.48848 1.42331 9.86295 1.27413 10.1936 1.14324C10.8987 0.862538 11.776 0.513672 12.7977 0.513672C12.7996 0.513672 12.802 0.513672 12.8038 0.513672C13.5667 0.513672 15.8799 0.681101 17.2706 2.76956L17.5963 3.25908L17.1275 3.61286C16.4577 4.11822 15.2357 5.04008 15.2357 6.86612C15.2357 9.02886 16.6197 9.8606 17.2846 10.2606C17.5781 10.4372 17.8819 10.6193 17.8819 11.0175C17.8819 11.2775 15.8068 16.8603 12.7935 16.8603C12.0561 16.8603 11.5349 16.6387 11.0752 16.4432C10.61 16.2453 10.2087 16.0748 9.54568 16.0748C9.20957 16.0748 8.78456 16.2338 8.3346 16.4024C7.71971 16.6319 7.02372 16.8925 6.23401 16.8925H6.21331Z" fill="white"/>
</svg>
