<svg width="23" height="22" viewBox="0 0 23 22" fill="none" xmlns="http://www.w3.org/2000/svg">
<path d="M19.162 0.619629H4.11503C2.39626 0.619629 0.997559 2.01833 0.997559 3.7371V18.7841C0.997559 20.5033 2.39626 21.9016 4.11503 21.9016H19.162C20.8812 21.9016 22.2795 20.5033 22.2795 18.7841V3.7371C22.2795 2.01833 20.8812 0.619629 19.162 0.619629ZM21.0325 18.7841C21.0325 19.8154 20.1933 20.6546 19.162 20.6546H4.11503C3.08377 20.6546 2.24455 19.8154 2.24455 18.7841V3.7371C2.24455 2.70584 3.08377 1.86662 4.11503 1.86662H19.162C20.1933 1.86662 21.0325 2.70584 21.0325 3.7371V18.7841Z" fill="white"/>
</svg>
